<svg width="72" height="72" viewBox="0 0 72 72" fill="none" xmlns="http://www.w3.org/2000/svg">
<rect width="72" height="72" fill="#1E1E1E"/>
<g id="asset flag">
<path d="M-60 -1974C-60 -1975.1 -59.1046 -1976 -58 -1976H898C899.105 -1976 900 -1975.1 900 -1974V838C900 839.104 899.105 840 898 840H-58C-59.1045 840 -60 839.104 -60 838V-1974Z" fill="#444444"/>
<path d="M-58 -1976V-1975H898V-1976V-1977H-58V-1976ZM900 -1974H899V838H900H901V-1974H900ZM898 840V839H-58V840V841H898V840ZM-60 838H-59V-1974H-60H-61V838H-60ZM-58 840V839C-58.5523 839 -59 838.552 -59 838H-60H-61C-61 839.657 -59.6568 841 -58 841V840ZM900 838H899C899 838.552 898.552 839 898 839V840V841C899.657 841 901 839.657 901 838H900ZM898 -1976V-1975C898.552 -1975 899 -1974.55 899 -1974H900H901C901 -1975.66 899.657 -1977 898 -1977V-1976ZM-58 -1976V-1977C-59.6569 -1977 -61 -1975.66 -61 -1974H-60H-59C-59 -1974.55 -58.5522 -1975 -58 -1975V-1976Z" fill="white" fill-opacity="0.1"/>
<g id="content">
<g id="panama" clip-path="url(#clip0_0_1)">
<g id="flag">
<rect id="Background" y="72" width="72" height="72" transform="rotate(-90 0 72)" fill="#F0F0F0"/>
<path id="Square" d="M0 36C9.76237 36 36 36 36 36C36 36 36 61.8803 36 72C22.3095 72 0 72 0 72C0 72 0 48.5217 0 36Z" fill="#0052B4"/>
<path id="Square_2" d="M36 0C45.7624 0 72 3.27229e-05 72 3.27229e-05C72 3.27229e-05 72 25.8803 72 36C58.3095 36 36 36 36 36C36 36 36 12.5217 36 0Z" fill="#D80027"/>
<path id="Symbol" d="M21.4294 12.5217L23.7605 19.6961H31.3041L25.2012 24.13L27.5322 31.3044L21.4294 26.8704L15.3265 31.3044L17.6575 24.13L11.5547 19.6961H19.0982L21.4294 12.5217Z" fill="#0052B4"/>
<path id="Symbol_2" d="M50.57 40.6956L52.9011 47.87H60.4447L54.3417 52.3039L56.6728 59.4783L50.57 55.0442L44.4672 59.4783L46.7982 52.3039L40.6953 47.87H48.2389L50.57 40.6956Z" fill="#D80027"/>
</g>
</g>
</g>
</g>
<defs>
<clipPath id="clip0_0_1">
<rect width="72" height="72" fill="white"/>
</clipPath>
</defs>
</svg>
