<svg width="72" height="72" viewBox="0 0 72 72" fill="none" xmlns="http://www.w3.org/2000/svg">
<rect width="72" height="72" fill="#1E1E1E"/>
<g id="asset flag">
<path d="M-828 -2454C-828 -2455.1 -827.105 -2456 -826 -2456H130C131.105 -2456 132 -2455.1 132 -2454V358C132 359.104 131.105 360 130 360H-826C-827.105 360 -828 359.104 -828 358V-2454Z" fill="#444444"/>
<path d="M-826 -2456V-2455H130V-2456V-2457H-826V-2456ZM132 -2454H131V358H132H133V-2454H132ZM130 360V359H-826V360V361H130V360ZM-828 358H-827V-2454H-828H-829V358H-828ZM-826 360V359C-826.552 359 -827 358.552 -827 358H-828H-829C-829 359.657 -827.657 361 -826 361V360ZM132 358H131C131 358.552 130.552 359 130 359V360V361C131.657 361 133 359.657 133 358H132ZM130 -2456V-2455C130.552 -2455 131 -2454.55 131 -2454H132H133C133 -2455.66 131.657 -2457 130 -2457V-2456ZM-826 -2456V-2457C-827.657 -2457 -829 -2455.66 -829 -2454H-828H-827C-827 -2454.55 -826.552 -2455 -826 -2455V-2456Z" fill="white" fill-opacity="0.1"/>
<g id="content">
<g id="turkey" clip-path="url(#clip0_0_1)">
<g id="flag">
<rect id="Background" width="72" height="72" fill="#D80027"/>
<path id="Symbol" d="M22.5519 23.4785C25.959 23.4785 29.0467 24.8411 31.3045 27.0492C29.8653 26.2694 28.2169 25.8264 26.465 25.8264C20.8462 25.8264 16.2911 30.3815 16.2911 36.0003C16.2911 41.6191 20.8462 46.1742 26.465 46.1742C28.2169 46.1742 29.8653 45.7312 31.3045 44.9512C29.0469 47.1591 25.9593 48.5219 22.5519 48.5219C15.6364 48.5218 10.0303 42.9157 10.0303 36.0002C10.0303 29.0847 15.6363 23.4785 22.5519 23.4785ZM37.48 33.4875L42.2636 31.9363L39.3051 36.0032L42.2585 40.0735L37.4766 38.5165L34.5182 42.5833L34.5214 37.5545L29.7393 35.9974L34.5231 34.4463L34.5261 29.417L37.48 33.4875Z" fill="#F0F0F0"/>
</g>
</g>
</g>
</g>
<defs>
<clipPath id="clip0_0_1">
<rect width="72" height="72" fill="white"/>
</clipPath>
</defs>
</svg>
